<svg xmlns="http://www.w3.org/2000/svg" width="131" height="249" fill="none" viewBox="0 0 131 249">
  <path stroke="#015865" stroke-linecap="round" stroke-linejoin="round" stroke-width="5" d="M78 221.325v-33.334a8.331 8.331 0 0 0-4.167-7.208l-29.166-16.667a8.337 8.337 0 0 0-8.334 0L7.167 180.783A8.331 8.331 0 0 0 3 187.991v33.334a8.337 8.337 0 0 0 4.167 7.208L36.333 245.2a8.337 8.337 0 0 0 8.334 0l29.166-16.667A8.336 8.336 0 0 0 78 221.325Zm50-80v-33.334a8.33 8.33 0 0 0-4.167-7.208L94.667 84.116a8.334 8.334 0 0 0-8.334 0l-29.166 16.667A8.33 8.33 0 0 0 53 107.991v33.334a8.338 8.338 0 0 0 4.167 7.208L86.333 165.2a8.337 8.337 0 0 0 8.334 0l29.166-16.667a8.33 8.33 0 0 0 4.167-7.208Zm-50-80V27.99a8.334 8.334 0 0 0-4.167-7.208L44.667 4.116a8.334 8.334 0 0 0-8.334 0L7.167 20.783A8.333 8.333 0 0 0 3 27.991v33.334a8.333 8.333 0 0 0 4.167 7.208L36.333 85.2a8.334 8.334 0 0 0 8.334 0l29.166-16.667A8.333 8.333 0 0 0 78 61.325Z"/>
</svg>
